# 3ds Max Wavefront OBJ Exporter v0.97b - (c)2007 guruware
# File Created: 17.10.2017 13:58:16

mtllib uiOBJ.mtl

#
# object Box001
#

v  -27.7380 16.4968 5.6887
v  -29.9479 14.2869 0.3021
v  -16.3194 6.0403 0.3264
v  -16.4537 11.6111 5.7784
v  -32.1615 12.0733 -0.0000
v  -17.5347 3.2626 -0.0000
v  0.0000 0.3112 -0.0000
v  0.0000 3.2626 0.3507
v  -0.0000 9.1998 5.8227
v  -25.4630 18.7718 -0.5093
v  -15.1042 14.2869 -0.5990
v  -16.3194 6.0403 -0.3264
v  -29.9479 14.2869 -0.3021
v  0.0000 12.0733 -0.6432
v  0.0000 3.2626 -0.3507
v  25.4630 18.7718 -0.5093
v  29.9479 14.2869 -0.3021
v  16.3194 6.0403 -0.3264
v  15.1042 14.2869 -0.5990
v  32.1615 12.0733 -0.0000
v  17.5347 3.2626 -0.0000
v  27.7380 16.4968 5.6887
v  16.4537 11.6111 5.7784
v  16.3194 6.0403 0.3264
v  29.9479 14.2869 0.3021
v  -27.7380 71.9728 5.6887
v  -16.4537 76.8584 5.7784
v  -16.3194 82.4292 0.3264
v  -29.9479 74.1827 0.3021
v  -0.0000 79.2698 5.8227
v  0.0000 85.2070 0.3507
v  0.0000 88.1584 -0.0000
v  -17.5347 85.2070 -0.0000
v  -32.1615 76.3962 -0.0000
v  27.7380 71.9728 5.6887
v  29.9479 74.1827 0.3021
v  16.3194 82.4292 0.3264
v  16.4537 76.8584 5.7784
v  32.1615 76.3962 -0.0000
v  17.5347 85.2070 -0.0000
v  25.4630 69.6978 -0.5093
v  15.1042 74.1827 -0.5990
v  16.3194 82.4292 -0.3264
v  29.9479 74.1827 -0.3021
v  0.0000 76.3962 -0.6432
v  0.0000 85.2070 -0.3507
v  -25.4630 69.6978 -0.5093
v  -29.9479 74.1827 -0.3021
v  -16.3194 82.4292 -0.3264
v  -15.1042 74.1827 -0.5990
v  -17.7775 26.4573 5.9433
v  -32.6236 27.7811 5.7784
v  -0.0000 25.1334 5.9989
v  -0.0000 44.2348 6.0579
v  -19.1014 44.2348 5.9989
v  -35.0350 44.2348 5.8227
v  32.6236 27.7811 5.7784
v  17.7775 26.4573 5.9433
v  35.0350 44.2348 5.8227
v  19.1014 44.2348 5.9989
v  17.7775 62.0123 5.9433
v  32.6236 60.6885 5.7784
v  -0.0000 63.3362 5.9989
v  -32.6236 60.6885 5.7784
v  -17.7775 62.0123 5.9433
v  38.1944 27.9153 0.3264
v  40.9722 26.7001 -0.0000
v  43.9236 44.2348 -0.0000
v  40.9722 44.2348 0.3507
v  29.9479 29.1306 -0.5990
v  38.1944 27.9153 -0.3264
v  32.1615 44.2348 -0.6432
v  40.9722 44.2348 -0.3507
v  38.1944 60.5542 -0.3264
v  29.9479 59.3390 -0.5990
v  40.9722 61.7695 -0.0000
v  38.1944 60.5542 0.3264
v  16.3194 27.9153 -0.7639
v  0.0000 26.7001 -0.8194
v  0.0000 44.2348 -0.8785
v  17.5347 44.2348 -0.8194
v  -29.9479 29.1306 -0.5990
v  -16.3194 27.9153 -0.7639
v  -32.1615 44.2348 -0.6432
v  -17.5347 44.2348 -0.8194
v  -16.3194 60.5542 -0.7639
v  -29.9479 59.3390 -0.5990
v  0.0000 61.7695 -0.8194
v  16.3194 60.5542 -0.7639
v  -38.1944 27.9153 -0.3264
v  -40.9722 26.7001 -0.0000
v  -43.9236 44.2348 -0.0000
v  -40.9722 44.2348 -0.3507
v  -38.1944 27.9153 0.3264
v  -40.9722 44.2348 0.3507
v  -38.1944 60.5542 0.3264
v  -40.9722 61.7695 -0.0000
v  -38.1944 60.5542 -0.3264
# 98 vertices

vn -0.3798 -0.7155 0.5864
vn -0.2176 -0.4015 0.8896
vn -0.1280 -0.3973 0.9087
vn -0.2649 -0.7102 0.6523
vn -0.5229 -0.8524 -0.0000
vn -0.3521 -0.9360 -0.0000
vn -0.0000 -1.0000 -0.0000
vn 0.0000 -0.3944 0.9189
vn 0.0000 -0.6891 0.7246
vn -0.0200 -0.0287 -0.9994
vn -0.0142 -0.0305 -0.9994
vn -0.0260 -0.0702 -0.9972
vn -0.0397 -0.0630 -0.9972
vn 0.0000 -0.0326 -0.9995
vn -0.0000 -0.0773 -0.9970
vn 0.0200 -0.0287 -0.9994
vn 0.0397 -0.0630 -0.9972
vn 0.0260 -0.0702 -0.9972
vn 0.0142 -0.0305 -0.9994
vn 0.5229 -0.8524 -0.0000
vn 0.3521 -0.9360 -0.0000
vn 0.3798 -0.7155 0.5864
vn 0.2649 -0.7102 0.6523
vn 0.1280 -0.3973 0.9087
vn 0.2176 -0.4015 0.8896
vn -0.3798 0.7155 0.5864
vn -0.2649 0.7102 0.6523
vn -0.1280 0.3973 0.9087
vn -0.2176 0.4015 0.8896
vn 0.0000 0.6891 0.7246
vn 0.0000 0.3944 0.9189
vn 0.0000 1.0000 0.0000
vn -0.3521 0.9360 -0.0000
vn -0.5229 0.8524 0.0000
vn 0.3798 0.7155 0.5864
vn 0.2176 0.4015 0.8896
vn 0.1280 0.3973 0.9087
vn 0.2649 0.7102 0.6523
vn 0.5229 0.8524 -0.0000
vn 0.3521 0.9360 0.0000
vn 0.0200 0.0287 -0.9994
vn 0.0142 0.0305 -0.9994
vn 0.0260 0.0702 -0.9972
vn 0.0397 0.0630 -0.9972
vn 0.0000 0.0326 -0.9995
vn 0.0000 0.0773 -0.9970
vn -0.0200 0.0287 -0.9994
vn -0.0397 0.0630 -0.9972
vn -0.0260 0.0702 -0.9972
vn -0.0142 0.0305 -0.9994
vn -0.0128 -0.0128 0.9998
vn -0.0074 -0.0118 0.9999
vn -0.0079 -0.0079 0.9999
vn -0.0118 -0.0074 0.9999
vn -0.0000 -0.0113 0.9999
vn -0.0000 -0.0074 1.0000
vn 0.0000 -0.0000 1.0000
vn -0.0074 -0.0000 1.0000
vn -0.0113 -0.0000 0.9999
vn 0.0128 -0.0128 0.9998
vn 0.0118 -0.0074 0.9999
vn 0.0079 -0.0079 0.9999
vn 0.0074 -0.0118 0.9999
vn 0.0113 -0.0000 0.9999
vn 0.0074 -0.0000 1.0000
vn 0.0128 0.0128 0.9998
vn 0.0074 0.0118 0.9999
vn 0.0079 0.0079 0.9999
vn 0.0118 0.0074 0.9999
vn 0.0000 0.0113 0.9999
vn 0.0000 0.0074 1.0000
vn -0.0128 0.0128 0.9998
vn -0.0118 0.0074 0.9999
vn -0.0079 0.0079 0.9999
vn -0.0074 0.0118 0.9999
vn 0.7155 -0.3798 0.5864
vn 0.4015 -0.2176 0.8896
vn 0.3973 -0.1280 0.9087
vn 0.7102 -0.2649 0.6523
vn 0.8524 -0.5229 -0.0000
vn 0.9360 -0.3521 -0.0000
vn 1.0000 0.0000 -0.0000
vn 0.3944 -0.0000 0.9189
vn 0.6891 -0.0000 0.7246
vn 0.0287 -0.0200 -0.9994
vn 0.0305 -0.0142 -0.9994
vn 0.0702 -0.0260 -0.9972
vn 0.0630 -0.0397 -0.9972
vn 0.0326 -0.0000 -0.9995
vn 0.0773 -0.0000 -0.9970
vn 0.0287 0.0200 -0.9994
vn 0.0630 0.0397 -0.9972
vn 0.0702 0.0260 -0.9972
vn 0.0305 0.0142 -0.9994
vn 0.8524 0.5229 -0.0000
vn 0.9360 0.3521 -0.0000
vn 0.7155 0.3798 0.5864
vn 0.7102 0.2649 0.6523
vn 0.3973 0.1280 0.9087
vn 0.4015 0.2176 0.8896
vn 0.0139 -0.0139 -0.9998
vn 0.0080 -0.0129 -0.9999
vn 0.0086 -0.0086 -0.9999
vn 0.0129 -0.0080 -0.9999
vn 0.0000 -0.0123 -0.9999
vn -0.0000 -0.0081 -1.0000
vn 0.0000 0.0000 -1.0000
vn 0.0081 -0.0000 -1.0000
vn 0.0123 -0.0000 -0.9999
vn -0.0139 -0.0139 -0.9998
vn -0.0129 -0.0080 -0.9999
vn -0.0086 -0.0086 -0.9999
vn -0.0080 -0.0129 -0.9999
vn -0.0123 -0.0000 -0.9999
vn -0.0081 -0.0000 -1.0000
vn -0.0139 0.0139 -0.9998
vn -0.0080 0.0129 -0.9999
vn -0.0086 0.0086 -0.9999
vn -0.0129 0.0080 -0.9999
vn 0.0000 0.0123 -0.9999
vn 0.0000 0.0081 -1.0000
vn 0.0139 0.0139 -0.9998
vn 0.0129 0.0080 -0.9999
vn 0.0086 0.0086 -0.9999
vn 0.0080 0.0129 -0.9999
vn -0.0287 -0.0200 -0.9994
vn -0.0630 -0.0397 -0.9972
vn -0.0702 -0.0260 -0.9972
vn -0.0305 -0.0142 -0.9994
vn -0.8524 -0.5229 -0.0000
vn -0.9360 -0.3521 -0.0000
vn -1.0000 0.0000 -0.0000
vn -0.0773 -0.0000 -0.9970
vn -0.0326 -0.0000 -0.9995
vn -0.7155 -0.3798 0.5864
vn -0.7102 -0.2649 0.6523
vn -0.3973 -0.1280 0.9087
vn -0.4015 -0.2176 0.8896
vn -0.6891 -0.0000 0.7246
vn -0.3944 -0.0000 0.9189
vn -0.7155 0.3798 0.5864
vn -0.4015 0.2176 0.8896
vn -0.3973 0.1280 0.9087
vn -0.7102 0.2649 0.6523
vn -0.8524 0.5229 -0.0000
vn -0.9360 0.3521 -0.0000
vn -0.0287 0.0200 -0.9994
vn -0.0305 0.0142 -0.9994
vn -0.0702 0.0260 -0.9972
vn -0.0630 0.0397 -0.9972
# 150 vertex normals

vt 0.1863 0.9342 0.0000
vt 0.1823 0.9243 0.0000
vt 0.2073 0.9244 0.0000
vt 0.2070 0.9344 0.0000
vt 0.1782 0.9238 0.0000
vt 0.2051 0.9238 0.0000
vt 0.2372 0.9238 0.0000
vt 0.2372 0.9244 0.0000
vt 0.2372 0.9345 0.0000
vt 0.1905 0.9228 0.0000
vt 0.2095 0.9227 0.0000
vt 0.2073 0.9232 0.0000
vt 0.1823 0.9232 0.0000
vt 0.2372 0.9226 0.0000
vt 0.2372 0.9231 0.0000
vt 0.2839 0.9228 0.0000
vt 0.2922 0.9232 0.0000
vt 0.2672 0.9232 0.0000
vt 0.2649 0.9227 0.0000
vt 0.2962 0.9238 0.0000
vt 0.2694 0.9238 0.0000
vt 0.2881 0.9342 0.0000
vt 0.2674 0.9344 0.0000
vt 0.2672 0.9244 0.0000
vt 0.2922 0.9243 0.0000
vt 0.0323 0.9456 0.0000
vt 0.0530 0.9454 0.0000
vt 0.0532 0.9554 0.0000
vt 0.0282 0.9554 0.0000
vt 0.0832 0.9453 0.0000
vt 0.0832 0.9553 0.0000
vt 0.0832 0.9560 0.0000
vt 0.0510 0.9560 0.0000
vt 0.0242 0.9560 0.0000
vt 0.1340 0.9456 0.0000
vt 0.1381 0.9554 0.0000
vt 0.1131 0.9554 0.0000
vt 0.1133 0.9454 0.0000
vt 0.1422 0.9560 0.0000
vt 0.1153 0.9560 0.0000
vt 0.1299 0.9569 0.0000
vt 0.1109 0.9571 0.0000
vt 0.1131 0.9566 0.0000
vt 0.1381 0.9565 0.0000
vt 0.0832 0.9572 0.0000
vt 0.0832 0.9566 0.0000
vt 0.0364 0.9569 0.0000
vt 0.0282 0.9565 0.0000
vt 0.0532 0.9566 0.0000
vt 0.0555 0.9571 0.0000
vt 0.3050 0.2996 0.0000
vt 0.3821 0.2662 0.0000
vt 0.3731 0.3677 0.0000
vt 0.2715 0.3768 0.0000
vt 0.4946 0.2497 0.0000
vt 0.4946 0.3587 0.0000
vt 0.4946 0.4893 0.0000
vt 0.3640 0.4893 0.0000
vt 0.2551 0.4893 0.0000
vt 0.6843 0.2996 0.0000
vt 0.7177 0.3768 0.0000
vt 0.6162 0.3677 0.0000
vt 0.6072 0.2662 0.0000
vt 0.7342 0.4893 0.0000
vt 0.6253 0.4893 0.0000
vt 0.6843 0.6790 0.0000
vt 0.6072 0.7124 0.0000
vt 0.6162 0.6109 0.0000
vt 0.7177 0.6018 0.0000
vt 0.4946 0.7289 0.0000
vt 0.4946 0.6199 0.0000
vt 0.3050 0.6790 0.0000
vt 0.2715 0.6018 0.0000
vt 0.3731 0.6109 0.0000
vt 0.3821 0.7124 0.0000
vt 0.1568 0.8211 0.0000
vt 0.1666 0.8170 0.0000
vt 0.1666 0.8420 0.0000
vt 0.1566 0.8418 0.0000
vt 0.1672 0.8130 0.0000
vt 0.1672 0.8398 0.0000
vt 0.1672 0.8720 0.0000
vt 0.1665 0.8720 0.0000
vt 0.1565 0.8720 0.0000
vt 0.1681 0.8252 0.0000
vt 0.1683 0.8443 0.0000
vt 0.1678 0.8420 0.0000
vt 0.1677 0.8170 0.0000
vt 0.1684 0.8720 0.0000
vt 0.1678 0.8720 0.0000
vt 0.1681 0.9187 0.0000
vt 0.1677 0.9269 0.0000
vt 0.1678 0.9019 0.0000
vt 0.1683 0.8997 0.0000
vt 0.1672 0.9310 0.0000
vt 0.1672 0.9041 0.0000
vt 0.1568 0.9228 0.0000
vt 0.1566 0.9021 0.0000
vt 0.1666 0.9019 0.0000
vt 0.1666 0.9269 0.0000
vt 0.0364 0.8358 0.0000
vt 0.0555 0.8276 0.0000
vt 0.0532 0.8526 0.0000
vt 0.0282 0.8548 0.0000
vt 0.0832 0.8235 0.0000
vt 0.0832 0.8503 0.0000
vt 0.0832 0.8825 0.0000
vt 0.0510 0.8825 0.0000
vt 0.0242 0.8825 0.0000
vt 0.1299 0.8358 0.0000
vt 0.1381 0.8548 0.0000
vt 0.1131 0.8526 0.0000
vt 0.1109 0.8276 0.0000
vt 0.1422 0.8825 0.0000
vt 0.1153 0.8825 0.0000
vt 0.1299 0.9292 0.0000
vt 0.1109 0.9374 0.0000
vt 0.1131 0.9124 0.0000
vt 0.1381 0.9102 0.0000
vt 0.0832 0.9415 0.0000
vt 0.0832 0.9147 0.0000
vt 0.0364 0.9292 0.0000
vt 0.0282 0.9102 0.0000
vt 0.0532 0.9124 0.0000
vt 0.0555 0.9374 0.0000
vt 0.1568 0.7034 0.0000
vt 0.1571 0.6952 0.0000
vt 0.1571 0.7202 0.0000
vt 0.1566 0.7225 0.0000
vt 0.1577 0.6912 0.0000
vt 0.1577 0.7180 0.0000
vt 0.1577 0.7502 0.0000
vt 0.1570 0.7502 0.0000
vt 0.1565 0.7502 0.0000
vt 0.1681 0.6993 0.0000
vt 0.1683 0.7200 0.0000
vt 0.1583 0.7202 0.0000
vt 0.1582 0.6952 0.0000
vt 0.1684 0.7502 0.0000
vt 0.1583 0.7502 0.0000
vt 0.1681 0.8010 0.0000
vt 0.1582 0.8051 0.0000
vt 0.1583 0.7801 0.0000
vt 0.1683 0.7803 0.0000
vt 0.1577 0.8092 0.0000
vt 0.1577 0.7823 0.0000
vt 0.1568 0.7969 0.0000
vt 0.1566 0.7779 0.0000
vt 0.1571 0.7801 0.0000
vt 0.1571 0.8051 0.0000
# 150 texture coords

g Box001
usemtl Material__27
s off
f 1/1/1 2/2/2 3/3/3 4/4/4 
f 5/5/5 6/6/6 3/3/3 2/2/2 
f 7/7/7 8/8/8 3/3/3 6/6/6 
f 9/9/9 4/4/4 3/3/3 8/8/8 
f 10/10/10 11/11/11 12/12/12 13/13/13 
f 14/14/14 15/15/15 12/12/12 11/11/11 
f 7/7/7 6/6/6 12/12/12 15/15/15 
f 5/5/5 13/13/13 12/12/12 6/6/6 
f 16/16/16 17/17/17 18/18/18 19/19/19 
f 20/20/20 21/21/21 18/18/18 17/17/17 
f 7/7/7 15/15/15 18/18/18 21/21/21 
f 14/14/14 19/19/19 18/18/18 15/15/15 
f 22/22/22 23/23/23 24/24/24 25/25/25 
f 9/9/9 8/8/8 24/24/24 23/23/23 
f 7/7/7 21/21/21 24/24/24 8/8/8 
f 20/20/20 25/25/25 24/24/24 21/21/21 
f 26/26/26 27/27/27 28/28/28 29/29/29 
f 30/30/30 31/31/31 28/28/28 27/27/27 
f 32/32/32 33/33/33 28/28/28 31/31/31 
f 34/34/34 29/29/29 28/28/28 33/33/33 
f 35/35/35 36/36/36 37/37/37 38/38/38 
f 39/39/39 40/40/40 37/37/37 36/36/36 
f 32/32/32 31/31/31 37/37/37 40/40/40 
f 30/30/30 38/38/38 37/37/37 31/31/31 
f 41/41/41 42/42/42 43/43/43 44/44/44 
f 45/45/45 46/46/46 43/43/43 42/42/42 
f 32/32/32 40/40/40 43/43/43 46/46/46 
f 39/39/39 44/44/44 43/43/43 40/40/40 
f 47/47/47 48/48/48 49/49/49 50/50/50 
f 34/34/34 33/33/33 49/49/49 48/48/48 
f 32/32/32 46/46/46 49/49/49 33/33/33 
f 45/45/45 50/50/50 49/49/49 46/46/46 
f 1/51/51 4/52/52 51/53/53 52/54/54 
f 9/55/55 53/56/56 51/53/53 4/52/52 
f 54/57/57 55/58/58 51/53/53 53/56/56 
f 56/59/59 52/54/54 51/53/53 55/58/58 
f 22/60/60 57/61/61 58/62/62 23/63/63 
f 59/64/64 60/65/65 58/62/62 57/61/61 
f 54/57/57 53/56/56 58/62/62 60/65/65 
f 9/55/55 23/63/63 58/62/62 53/56/56 
f 35/66/66 38/67/67 61/68/68 62/69/69 
f 30/70/70 63/71/71 61/68/68 38/67/67 
f 54/57/57 60/65/65 61/68/68 63/71/71 
f 59/64/64 62/69/69 61/68/68 60/65/65 
f 26/72/72 64/73/73 65/74/74 27/75/75 
f 56/59/59 55/58/58 65/74/74 64/73/73 
f 54/57/57 63/71/71 65/74/74 55/58/58 
f 30/70/70 27/75/75 65/74/74 63/71/71 
f 22/76/76 25/77/77 66/78/78 57/79/79 
f 20/80/80 67/81/81 66/78/78 25/77/77 
f 68/82/82 69/83/83 66/78/78 67/81/81 
f 59/84/84 57/79/79 66/78/78 69/83/83 
f 16/85/85 70/86/86 71/87/87 17/88/88 
f 72/89/89 73/90/90 71/87/87 70/86/86 
f 68/82/82 67/81/81 71/87/87 73/90/90 
f 20/80/80 17/88/88 71/87/87 67/81/81 
f 41/91/91 44/92/92 74/93/93 75/94/94 
f 39/95/95 76/96/96 74/93/93 44/92/92 
f 68/82/82 73/90/90 74/93/93 76/96/96 
f 72/89/89 75/94/94 74/93/93 73/90/90 
f 35/97/97 62/98/98 77/99/99 36/100/100 
f 59/84/84 69/83/83 77/99/99 62/98/98 
f 68/82/82 76/96/96 77/99/99 69/83/83 
f 39/95/95 36/100/100 77/99/99 76/96/96 
f 16/101/101 19/102/102 78/103/103 70/104/104 
f 14/105/105 79/106/106 78/103/103 19/102/102 
f 80/107/107 81/108/108 78/103/103 79/106/106 
f 72/109/109 70/104/104 78/103/103 81/108/108 
f 10/110/110 82/111/111 83/112/112 11/113/113 
f 84/114/114 85/115/115 83/112/112 82/111/111 
f 80/107/107 79/106/106 83/112/112 85/115/115 
f 14/105/105 11/113/113 83/112/112 79/106/106 
f 47/116/116 50/117/117 86/118/118 87/119/119 
f 45/120/120 88/121/121 86/118/118 50/117/117 
f 80/107/107 85/115/115 86/118/118 88/121/121 
f 84/114/114 87/119/119 86/118/118 85/115/115 
f 41/122/122 75/123/123 89/124/124 42/125/125 
f 72/109/109 81/108/108 89/124/124 75/123/123 
f 80/107/107 88/121/121 89/124/124 81/108/108 
f 45/120/120 42/125/125 89/124/124 88/121/121 
f 10/126/126 13/127/127 90/128/128 82/129/129 
f 5/130/130 91/131/131 90/128/128 13/127/127 
f 92/132/132 93/133/133 90/128/128 91/131/131 
f 84/134/134 82/129/129 90/128/128 93/133/133 
f 1/135/135 52/136/136 94/137/137 2/138/138 
f 56/139/139 95/140/140 94/137/137 52/136/136 
f 92/132/132 91/131/131 94/137/137 95/140/140 
f 5/130/130 2/138/138 94/137/137 91/131/131 
f 26/141/141 29/142/142 96/143/143 64/144/144 
f 34/145/145 97/146/146 96/143/143 29/142/142 
f 92/132/132 95/140/140 96/143/143 97/146/146 
f 56/139/139 64/144/144 96/143/143 95/140/140 
f 47/147/147 87/148/148 98/149/149 48/150/150 
f 84/134/134 93/133/133 98/149/149 87/148/148 
f 92/132/132 97/146/146 98/149/149 93/133/133 
f 34/145/145 48/150/150 98/149/149 97/146/146 
# 96 polygons

